<svg id="Layer_1" data-name="Layer 1" xmlns="http://www.w3.org/2000/svg" viewBox="0 0 993.17 108.99"><defs><style>.cls-1{fill:#a3b4be;}.cls-1,.cls-4{stroke:#fff;stroke-miterlimit:10;}.cls-2{fill:#666;}.cls-3{fill:#fff;}.cls-4{fill:none;}</style></defs><title>header</title><rect class="cls-1" x="0.5" y="0.5" width="992.17" height="107.99"/><path class="cls-2" d="M633,65H622V62.73h24.67V65h-11v36.47H633Z" transform="translate(-276.83 -26.01)"/><path class="cls-2" d="M651.25,88,647,101.44h-2.69l12.54-38.71h2.57l12.53,38.71h-2.74L664.86,88Zm12.85-2.24-4-12.33c-.87-2.78-1.38-5-1.93-7.43H658c-.52,2.52-1.12,4.79-1.91,7.36l-4,12.4Z" transform="translate(-276.83 -26.01)"/><path class="cls-2" d="M681.61,101.44V84.51L670.43,62.73h3L679,73.81c1.48,3,2.84,5.67,4.08,8.56h.12c1.13-2.77,2.6-5.58,4.17-8.65l5.8-11h3L684.27,84.52v16.92Z" transform="translate(-276.83 -26.01)"/><path class="cls-2" d="M700.67,62.73h2.65V99.19h15.53v2.25H700.67Z" transform="translate(-276.83 -26.01)"/><path class="cls-2" d="M749.54,81.81c0,13.87-7.29,20.21-15.25,20.21-8.16,0-14.76-6.85-14.76-19.67,0-13.16,6.84-20.2,15.3-20.2S749.54,69.06,749.54,81.81Zm-27.25.48c0,8.34,4,17.46,12.23,17.46s12.26-8.88,12.26-17.82c0-8-3.58-17.51-12.2-17.51S722.29,73.69,722.29,82.29Z" transform="translate(-276.83 -26.01)"/><path class="cls-2" d="M756,63.27a32.77,32.77,0,0,1,7.42-.81c4.62,0,7.55,1,9.6,3.09a9.94,9.94,0,0,1,2.65,7c0,5.28-2.92,8.51-7.22,10.11v.11c3.08.93,4.93,3.86,5.84,8.55,1.22,6,1.94,8.72,2.64,10.12h-2.74c-.6-1.15-1.38-4.59-2.36-9.53-1.13-5.59-3.38-8.07-8.31-8.22h-4.87v17.75H756Zm2.65,18.29h5c5.62,0,9.36-3.36,9.36-8.55,0-5.71-3.69-8.33-9.62-8.33a20.65,20.65,0,0,0-4.69.44Z" transform="translate(-276.83 -26.01)"/><path class="cls-3" d="M800.49,65.54a35.44,35.44,0,0,1,7.44-.75c4.14,0,7.38,1.13,9.38,3.12a10.43,10.43,0,0,1,2.85,7.63,11.14,11.14,0,0,1-2.41,7.52C815.43,86,811.5,87.5,807.1,87.5a14.76,14.76,0,0,1-4-.36v16.62h-2.65Zm2.65,19.27a14.7,14.7,0,0,0,4.06.44c6.25,0,10.26-3.23,10.26-9.5,0-5.57-3.62-8.71-9.67-8.71a23.39,23.39,0,0,0-4.65.4Z" transform="translate(-276.83 -26.01)"/><path class="cls-3" d="M829.56,65.05V82.16h18.75V65.05H851v38.71h-2.65V84.43H829.56v19.33h-2.65V65.05Z" transform="translate(-276.83 -26.01)"/><path class="cls-3" d="M864,90.29l-4.28,13.47H857l12.54-38.71h2.56l12.54,38.71h-2.74l-4.34-13.47ZM876.83,88l-4-12.33c-.87-2.77-1.39-5-1.94-7.42h-.17c-.51,2.52-1.12,4.79-1.9,7.36l-4,12.39Z" transform="translate(-276.83 -26.01)"/><path class="cls-3" d="M919.83,85.34c-.35-5.86-.76-12.67-.68-17H919c-1.25,4.27-2.68,8.78-4.69,14.44l-7.37,21h-1.72l-6.94-20.33c-2-6-3.54-10.7-4.61-15.08h-.17c0,4.61-.29,11.05-.7,17.51l-1.08,17.9h-2.62l2.58-38.71h3.05l7.45,21.62c1.71,5,3,8.79,4,12.73h.14c1-3.85,2.18-7.45,4-12.7l7.6-21.65h3.23l2.45,38.71H920.9Z" transform="translate(-276.83 -26.01)"/><rect class="cls-4" x="13.67" y="12.99" width="961.5" height="82"/></svg>